HIERARCHY
ROOT Hips
{
	OFFSET 0.000000 0.000000 0.000000
	CHANNELS 6 Xposition Yposition Zposition Yrotation Xrotation Zrotation
	JOINT Chest
	{
		OFFSET 0.000000 -0.009281 11.569106
		CHANNELS 3 Yrotation Xrotation Zrotation
		JOINT Chest2
		{
			OFFSET -0.000000 0.016865 9.269641
			CHANNELS 3 Yrotation Xrotation Zrotation
			JOINT Chest3
			{
				OFFSET -0.000000 0.000001 8.374491
				CHANNELS 3 Yrotation Xrotation Zrotation
				JOINT Chest4
				{
					OFFSET -0.000000 0.000001 8.374493
					CHANNELS 3 Yrotation Xrotation Zrotation
					JOINT Neck
					{
						OFFSET -0.000000 0.000002 12.152554
						CHANNELS 3 Yrotation Xrotation Zrotation
						JOINT Head
						{
							OFFSET -0.000000 0.040101 7.802319
							CHANNELS 3 Yrotation Xrotation Zrotation
							End Site
							{
								OFFSET -0.000000 0.020947 14.853096
							}
						}
					}
					JOINT RightCollar
					{
						OFFSET 2.894404 0.000001 6.791374
						CHANNELS 3 Yrotation Xrotation Zrotation
						JOINT RightShoulder
						{
							OFFSET 13.574684 0.000001 0.000000
							CHANNELS 3 Yrotation Xrotation Zrotation
							JOINT RightElbow
							{
								OFFSET 23.923903 0.000002 0.000000
								CHANNELS 3 Yrotation Xrotation Zrotation
								JOINT RightWrist
								{
									OFFSET 19.846718 0.012767 0.000000
									CHANNELS 3 Yrotation Xrotation Zrotation
									End Site
									{
										OFFSET 14.973145 0.000001 0.000000
									}
								}
							}
						}
					}
					JOINT LeftCollar
					{
						OFFSET -2.894404 0.000001 6.791374
						CHANNELS 3 Yrotation Xrotation Zrotation
						JOINT LeftShoulder
						{
							OFFSET -13.574684 -0.000001 0.000000
							CHANNELS 3 Yrotation Xrotation Zrotation
							JOINT LeftElbow
							{
								OFFSET -23.923903 -0.000002 0.000000
								CHANNELS 3 Yrotation Xrotation Zrotation
								JOINT LeftWrist
								{
									OFFSET -19.846718 0.012763 0.000000
									CHANNELS 3 Yrotation Xrotation Zrotation
									End Site
									{
										OFFSET -14.973145 -0.000001 0.000000
									}
								}
							}
						}
					}
				}
			}
		}
	}
	JOINT RightHip
	{
		OFFSET 9.469263 0.004643 0.045487
		CHANNELS 3 Yrotation Xrotation Zrotation
		JOINT RightKnee
		{
			OFFSET 0.000000 0.002661 -40.478676
			CHANNELS 3 Yrotation Xrotation Zrotation
			JOINT RightAnkle
			{
				OFFSET 0.000000 0.049106 -35.224068
				CHANNELS 3 Yrotation Xrotation Zrotation
				JOINT RightToe
				{
					OFFSET -0.000001 12.539529 -6.151390
					CHANNELS 3 Yrotation Xrotation Zrotation
					End Site
					{
						OFFSET -0.000001 5.044994 -1.291870
					}
				}
			}
		}
	}
	JOINT LeftHip
	{
		OFFSET -9.469263 0.004641 0.045487
		CHANNELS 3 Yrotation Xrotation Zrotation
		JOINT LeftKnee
		{
			OFFSET 0.000000 0.002661 -40.478676
			CHANNELS 3 Yrotation Xrotation Zrotation
			JOINT LeftAnkle
			{
				OFFSET 0.000000 0.049106 -35.224068
				CHANNELS 3 Yrotation Xrotation Zrotation
				JOINT LeftToe
				{
					OFFSET -0.000001 12.539529 -6.151390
					CHANNELS 3 Yrotation Xrotation Zrotation
					End Site
					{
						OFFSET -0.000001 5.044994 -1.291870
					}
				}
			}
		}
	}
}
MOTION
Frames: 7
Frame Time: 0.016667
10.892092 6.223343 83.060432 -4.824560 -1.474503 -108.152726 -0.519559 -2.539311 0.733512 -0.229428 -1.128304 0.322528 -0.229428 -1.128304 0.322529 -0.171470 -0.846349 0.241466 1.201960 -16.819011 -2.547575 1.331355 4.949895 -4.297991 4.221686 22.702307 -4.321694 32.532676 53.443406 29.566844 30.315019 0.311107 75.331017 -23.468919 25.964052 19.075392 -4.378466 17.931661 -1.297168 -33.683495 51.069997 -31.783466 -20.726960 8.550173 -68.828588 11.523630 29.340526 -18.445216 -0.385946 -7.079739 -3.780518 1.417337 -1.950256 -6.716329 -0.632536 3.753988 2.265504 0.002218 -0.024603 0.001788 -0.708191 -7.530896 0.383068 0.928663 -1.181890 1.577206 -0.647154 3.785055 1.132764 -0.014807 -0.020187 -0.000167 
10.879565 6.225210 83.060356 -4.823814 -1.479653 -108.165683 -0.515897 -2.555302 0.739792 -0.226842 -1.135857 0.325890 -0.226843 -1.135858 0.325892 -0.169520 -0.852014 0.243986 1.206904 -16.815692 -2.553168 1.338464 4.956121 -4.306641 4.220245 22.746357 -4.376028 32.480265 53.339519 29.399371 34.671881 0.288055 75.982248 -20.121623 28.822848 19.675405 -4.484442 17.916899 -1.342133 -33.531817 51.038899 -31.711042 -18.179129 8.127551 -68.229212 6.923400 39.099025 -18.623462 -0.377924 -7.072296 -3.733260 1.411394 -1.943534 -6.754546 -0.630282 3.740837 2.268034 0.000763 -0.022414 0.001868 -0.707959 -7.520048 0.308671 0.932521 -1.188879 1.621601 -0.644579 3.784181 1.182833 -0.013485 -0.021117 -0.001349 
10.861058 6.229444 83.060699 -4.822597 -1.483737 -108.188544 -0.514377 -2.571092 0.766870 -0.225497 -1.143521 0.338630 -0.225497 -1.143521 0.338634 -0.168484 -0.857765 0.253542 1.213522 -16.791525 -2.578898 1.341071 5.000826 -4.352212 4.273557 22.427276 -4.288272 32.339856 53.062770 29.062151 41.621254 0.922788 77.443000 -14.242593 31.098995 18.967307 -4.588464 17.724966 -1.503323 -33.739178 51.088907 -31.626843 -24.560961 8.587492 -70.178315 -1.128872 47.718140 -19.586648 -0.378220 -7.049618 -3.725208 1.412457 -1.956811 -6.753619 -0.632205 3.732544 2.297033 0.001104 -0.020954 0.002087 -0.707843 -7.498241 0.261994 0.934895 -1.210870 1.631662 -0.637300 3.787958 1.236367 -0.015714 -0.021283 -0.002573 
10.845284 6.237647 83.059326 -4.806912 -1.481862 -108.213658 -0.518202 -2.572470 0.792296 -0.226526 -1.143555 0.350616 -0.226526 -1.143555 0.350615 -0.169233 -0.857796 0.262531 1.225015 -16.764689 -2.604557 1.352654 5.050621 -4.395970 4.360604 22.210706 -4.135797 32.247236 52.813560 28.835450 46.872433 1.719414 78.591865 -8.458499 33.205695 17.646262 -4.562715 17.528871 -1.549909 -34.314607 51.056753 -31.708023 -37.093764 9.109949 -73.971543 -6.175819 51.357944 -18.616118 -0.382491 -7.013943 -3.769095 1.419126 -1.969714 -6.713857 -0.638391 3.729783 2.301684 0.001991 -0.023465 0.000755 -0.709935 -7.464744 0.281657 0.931842 -1.227113 1.605402 -0.623785 3.792509 1.265169 -0.017837 -0.022961 -0.002608 
10.836344 6.243893 83.057526 -4.771688 -1.472616 -108.241177 -0.523272 -2.558968 0.795507 -0.228897 -1.136337 0.352792 -0.228897 -1.136337 0.352790 -0.171011 -0.852385 0.264156 1.231599 -16.747748 -2.608172 1.363151 5.082183 -4.400506 4.401414 22.265935 -4.081960 32.599158 53.131096 29.309370 48.310778 2.024671 78.356224 -4.989034 34.656380 17.624193 -4.550459 17.465156 -1.566606 -35.203461 51.437854 -32.409254 -48.486454 9.047444 -76.753383 -7.140321 50.542946 -16.773860 -0.391787 -6.969370 -3.827397 1.422922 -1.971254 -6.657256 -0.638133 3.726217 2.346648 0.003017 -0.026034 0.000778 -0.711308 -7.428600 0.354372 0.928733 -1.217581 1.567854 -0.615811 3.790172 1.250903 -0.017632 -0.024835 -0.002372 
10.838175 6.247310 83.058678 -4.722138 -1.456845 -108.271831 -0.540164 -2.534312 0.792768 -0.236416 -1.124480 0.351589 -0.236416 -1.124480 0.351588 -0.176660 -0.843496 0.263248 1.244181 -16.756829 -2.601749 1.388961 5.065742 -4.384080 4.366352 22.385969 -4.217950 33.089138 53.689658 29.855563 44.377614 1.569965 77.228601 -7.149115 34.175651 18.842108 -4.623965 17.480455 -1.646095 -35.928048 52.345590 -33.139747 -49.550038 8.400135 -76.246638 -4.147344 45.715675 -17.331863 -0.391818 -6.925934 -3.846296 1.413703 -1.948203 -6.622507 -0.632298 3.710723 2.358187 0.001186 -0.024117 -0.000145 -0.713202 -7.394839 0.457895 0.924012 -1.187239 1.517489 -0.614807 3.778124 1.212042 -0.012291 -0.020412 -0.001867 
10.843771 6.243865 83.062286 -4.677645 -1.439946 -108.296788 -0.545189 -2.505225 0.766959 -0.239412 -1.112434 0.339732 -0.239412 -1.112434 0.339732 -0.178934 -0.834459 0.254353 1.234153 -16.784693 -2.578299 1.379336 5.014040 -4.343906 4.301954 22.207032 -4.344015 33.474942 54.367790 30.088674 37.301251 0.607977 76.085227 -15.106611 29.744661 18.681486 -4.803732 17.705976 -1.799878 -35.606008 52.796655 -32.781589 -41.232698 8.150413 -73.886910 1.803341 38.503832 -18.904507 -0.390183 -6.884861 -3.816643 1.397517 -1.935364 -6.632160 -0.621105 3.701097 2.375817 -0.000208 -0.019551 0.000446 -0.715333 -7.371728 0.522081 0.924065 -1.149372 1.491342 -0.623624 3.761553 1.191304 -0.005375 -0.014301 -0.001117 
